<?xml version="1.0" encoding="UTF-8"?>
<svg id="Layer_1" xmlns="http://www.w3.org/2000/svg" viewBox="0 0 2000 2000">
  <defs>
    <style>
      .cls-1 {
        fill: #231f20;
      }
    </style>
  </defs>
  <text/>
  <path class="cls-1" d="M518.34,1286.06l-188.62-343.28h200.24c16.09,0,29.64-5.5,40.67-16.54,11.02-11.02,16.54-24.58,16.54-40.67s-5.52-29.64-16.54-40.67c-11.03-11.02-24.58-16.54-40.67-16.54H243.89v457.7h-114.43v-572.13h400.49c47.67,0,88.19,16.69,121.58,50.06,33.37,33.38,50.06,73.9,50.06,121.58s-16.69,88.21-50.06,121.58-73.9,50.06-121.58,50.06h-25.03l126.94,228.85h-113.53Z"/>
  <path class="cls-1" d="M829.35,1286.06h-114.43v-572.13h400.49c47.67,0,88.19,16.69,121.58,50.06,33.37,33.38,50.06,73.9,50.06,121.58s-16.69,88.21-50.06,121.58c-33.38,33.38-73.9,50.06-121.58,50.06h-219.29v-114.43h219.29c16.09,0,29.64-5.5,40.67-16.54s16.54-24.58,16.54-40.67-5.52-29.64-16.54-40.67c-11.03-11.02-24.58-16.54-40.67-16.54h-286.06v457.7Z"/>
  <path class="cls-1" d="M1698.89,1286.06h-686.55v-114.43h686.55c16.09,0,29.64-5.5,40.67-16.54s16.54-24.58,16.54-40.67-5.52-29.64-16.54-40.67c-11.03-11.02-24.58-16.54-40.67-16.54h-228.85c-47.69,0-88.21-16.68-121.58-50.06-33.38-33.37-50.06-73.89-50.06-121.58s16.68-88.19,50.06-121.58c33.37-33.37,73.89-50.06,121.58-50.06h343.28v114.43h-343.28c-16.09,0-29.65,5.52-40.67,16.54s-16.54,24.58-16.54,40.67,5.5,29.65,16.54,40.67c11.02,11.03,24.58,16.54,40.67,16.54h228.85c47.67,0,88.19,16.69,121.58,50.06,33.37,33.38,50.06,73.9,50.06,121.58s-16.69,88.21-50.06,121.58c-33.38,33.38-73.9,50.06-121.58,50.06Z"/>
  <path class="cls-1" d="M1586.85,1399l40.5-85.06,40.5,85.06h-18.23l-22.28-46.58-22.28,46.58h-18.23Z"/>
  <path class="cls-1" d="M1745.57,1432.84l-45.3-82.45h28.35c2.28,0,4.2-.78,5.76-2.34s2.34-3.48,2.34-5.76-.78-4.2-2.34-5.76c-1.56-1.56-3.48-2.34-5.76-2.34h-40.5v64.81h-16.2v-81.01h56.71c6.75,0,12.49,2.36,17.21,7.09,4.73,4.73,7.09,10.46,7.09,17.21s-2.36,12.49-7.09,17.21c-4.73,4.73-10.46,7.09-17.21,7.09h-3.54l36.75,66.25h-16.25Z"/>
  <path class="cls-1" d="M1804.94,1334.19v64.81h-16.2v-64.81h-32.4v-16.2h81.01v16.2h-32.4Z"/>
</svg>